<svg width="44" height="45" viewBox="0 0 44 45" fill="none" xmlns="http://www.w3.org/2000/svg">
<path d="M40.0297 14.6975L41.0724 11.9165L38.145 11.4304L38.6437 8.50246L35.6782 8.57874L35.6136 5.60966L32.714 6.24704L32.0906 3.34268L29.3658 4.51727L28.2056 1.7832L25.7504 3.45416L24.0935 0.990051L21.9991 3.0956L19.9047 0.990051L18.2476 3.45416L15.7939 1.7832L14.6323 4.51727L11.9074 3.34243L11.2841 6.24679L8.38594 5.60942L8.32129 8.5785L5.35434 8.50221L5.85305 11.4302L2.92566 11.9162L3.96832 14.6973L1.18644 15.7299L2.73518 18.2629L0.198109 19.8032L2.20009 21.9983L0 23.9909L2.37878 25.7662L0.595309 28.139L3.26609 29.4312L1.96388 32.0993L4.83252 32.8644L4.0595 35.7306L7.01909 35.9361L6.80058 38.9008L9.74689 38.541L10.093 41.4924L12.9161 40.5806L13.8138 43.4131L16.414 41.9828L17.8307 44.5936L20.1156 42.6965L22.0001 44.9901L23.8846 42.6965L26.1695 44.5936L27.5862 41.9828L30.1865 43.4131L31.0826 40.5806L33.9073 41.4924L34.2534 38.541L37.1997 38.9008L36.9812 35.9361L39.9407 35.7306L39.1692 32.8644L42.0378 32.0993L40.7339 29.4312L43.4062 28.139L41.6212 25.7662L44 23.9909L41.8002 21.9983L43.8021 19.8032L41.2663 18.2629L42.8136 15.7299L40.0297 14.6975ZM28.0488 31.443C26.6321 33.2653 24.7269 34.1756 22.329 34.1756C20.2597 34.1756 18.5217 33.4297 17.1152 31.9364C15.7865 30.5283 14.9314 28.5679 14.5605 26.0526H10.9203L11.5259 23.9983H14.355C14.3373 23.6018 14.3272 23.1995 14.3272 22.7838C14.3272 22.4255 14.3361 22.0716 14.355 21.7133H10.9203L11.5259 19.6604H14.5883C14.9154 17.897 15.5269 16.3697 16.4216 15.0775C17.9234 12.8984 19.9972 11.8089 22.6458 11.8089C24.9 11.8089 26.6498 12.5152 27.8962 13.9337C29.1443 15.3507 29.832 16.9616 29.9699 18.7632H27.616C27.355 17.3947 26.8255 16.3094 26.0277 15.5091C25.2269 14.7089 24.1093 14.308 22.6765 14.308C20.9152 14.308 19.494 15.0465 18.416 16.5223C17.819 17.3314 17.3908 18.3783 17.1312 19.6602H25.1903L24.5817 21.7131H16.8427C16.8119 22.2035 16.7987 22.7248 16.7987 23.274C16.7987 23.5236 16.8031 23.7645 16.8134 23.998H25.1893L24.5822 26.0509H17.0273C17.2605 27.3124 17.6695 28.4063 18.2547 29.3284C19.23 30.8731 20.6805 31.6426 22.6178 31.6426C24.4013 31.6426 25.7563 30.8275 26.6891 29.1992C27.1819 28.3445 27.5486 27.2139 27.7861 25.8159H30.143C29.9306 28.0556 29.234 29.932 28.0488 31.443Z" fill="#0050DF"/>
</svg>
