<svg width="40" height="40" viewBox="0 0 40 40" fill="none" xmlns="http://www.w3.org/2000/svg">
<path d="M39.7531 0.79077C39.743 0.779328 39.7379 0.766615 39.7328 0.760258C39.7226 0.743731 39.7073 0.73356 39.7035 0.720847C39.4148 0.325462 38.9582 0.0673807 38.4341 0.0673807H38.4316H11.7807H11.7769C10.9081 0.0673807 10.2086 0.770429 10.2086 1.63621V1.63748V3.00544V8.14417V11.0352V16.1752V19.0624V24.1999V27.0896V32.2296V33.5963C10.2086 33.9103 10.3027 34.204 10.4617 34.4494C10.4693 34.457 10.4719 34.4672 10.4769 34.4761C10.4897 34.4913 10.5024 34.5028 10.5087 34.5142C10.7949 34.9109 11.2541 35.1689 11.7769 35.1689H11.7794H13.7306C13.4024 37.2984 11.5746 38.9384 9.35383 38.9384C7.11013 38.9384 5.26836 37.2641 4.972 35.0977H6.93969C7.80842 35.0977 8.50926 34.3947 8.50926 33.5302V33.5289V32.1622V27.0222V24.1337V18.9963V16.1065V10.9653V8.07552V2.93805V1.56883V1.56628C8.50926 1.25608 8.41768 0.963672 8.25869 0.722118C8.25233 0.713219 8.24597 0.699234 8.23834 0.691606C8.23198 0.67635 8.22053 0.664908 8.20908 0.653466C7.9229 0.259352 7.46373 0 6.93842 0H1.56957H1.56703C0.699566 0 0 0.703048 0 1.56628V1.56883V2.93678V8.07425V10.964V16.104V18.9937V24.1312V27.0197V32.1597V33.5276V33.5289C0 33.8429 0.0915795 34.1353 0.250572 34.3794C0.258203 34.3871 0.263291 34.3985 0.268379 34.4061C0.278554 34.4227 0.290002 34.4328 0.297633 34.4455C0.586363 34.8422 1.04299 35.099 1.56703 35.099H1.56957H3.90739C4.21139 37.8476 6.52377 40 9.35256 40C12.1597 40 14.4581 37.8807 14.7926 35.1664H38.4303H38.4329C39.3016 35.1664 39.9999 34.4621 39.9999 33.5988V33.5963V32.2283V27.0883V24.2011V19.0637V16.1752V11.0352V8.14544V3.00671V1.63875V1.63748C40.0037 1.32346 39.9096 1.03232 39.7531 0.79077ZM20.3039 23.718C20.3039 24.088 20.0038 24.3855 19.6336 24.3855H15.9425C15.5723 24.3855 15.2734 24.088 15.2734 23.718V22.1543C15.2734 21.7869 15.5723 21.4868 15.9425 21.4868H19.6336C20.0038 21.4868 20.3039 21.7869 20.3039 22.1543V23.718ZM20.3039 18.4C20.3039 18.77 20.0038 19.07 19.6336 19.07H15.9425C15.5723 19.07 15.2734 18.77 15.2734 18.4V16.8376C15.2734 16.4676 15.5723 16.1676 15.9425 16.1676H19.6336C20.0038 16.1676 20.3039 16.4676 20.3039 16.8376V18.4ZM20.3039 13.082C20.3039 13.4494 20.0038 13.7508 19.6336 13.7508H15.9425C15.5723 13.7508 15.2734 13.4494 15.2734 13.082V11.5196C15.2734 11.1496 15.5723 10.8496 15.9425 10.8496H19.6336C20.0038 10.8496 20.3039 11.1496 20.3039 11.5196V13.082ZM27.6227 23.718C27.6227 24.088 27.325 24.3855 26.9524 24.3855H23.2625C22.8898 24.3855 22.5934 24.088 22.5934 23.718V22.1543C22.5934 21.7869 22.8898 21.4868 23.2625 21.4868H26.9524C27.325 21.4868 27.6227 21.7869 27.6227 22.1543V23.718ZM27.6227 18.4C27.6227 18.77 27.325 19.07 26.9524 19.07H23.2625C22.8898 19.07 22.5934 18.77 22.5934 18.4V16.8376C22.5934 16.4676 22.8898 16.1676 23.2625 16.1676H26.9524C27.325 16.1676 27.6227 16.4676 27.6227 16.8376V18.4ZM27.6227 13.082C27.6227 13.4494 27.325 13.7508 26.9524 13.7508H23.2625C22.8898 13.7508 22.5934 13.4494 22.5934 13.082V11.5196C22.5934 11.1496 22.8898 10.8496 23.2625 10.8496H26.9524C27.325 10.8496 27.6227 11.1496 27.6227 11.5196V13.082ZM34.9414 23.718C34.9414 24.088 34.6412 24.3855 34.2685 24.3855H30.5812C30.2085 24.3855 29.9096 24.088 29.9096 23.718V22.1543C29.9096 21.7869 30.2085 21.4868 30.5812 21.4868H34.2685C34.6412 21.4868 34.9414 21.7869 34.9414 22.1543V23.718ZM34.9414 18.4C34.9414 18.77 34.6412 19.07 34.2685 19.07H30.5812C30.2085 19.07 29.9096 18.77 29.9096 18.4V16.8376C29.9096 16.4676 30.2085 16.1676 30.5812 16.1676H34.2685C34.6412 16.1676 34.9414 16.4676 34.9414 16.8376V18.4ZM34.9414 13.082C34.9414 13.4494 34.6412 13.7508 34.2685 13.7508H30.5812C30.2085 13.7508 29.9096 13.4494 29.9096 13.082V11.5196C29.9096 11.1496 30.2085 10.8496 30.5812 10.8496H34.2685C34.6412 10.8496 34.9414 11.1496 34.9414 11.5196V13.082Z" fill="#0050DF"/>
</svg>
