<svg width="52" height="29" viewBox="0 0 52 29" fill="none" xmlns="http://www.w3.org/2000/svg">
<path d="M48.4891 4.87666C46.0994 2.17022 42.7296 0.679688 39 0.679688C34.401 0.679688 30.9392 3.32894 28.5134 6.26796C29.4352 7.68354 30.1533 9.03859 30.677 10.1381C32.5403 7.45401 35.3307 4.74219 39 4.74219C44.1788 4.74219 47.9375 8.92809 47.9375 14.6953C47.9375 20.4625 44.1788 24.6484 39 24.6484C31.5966 24.6484 27.9611 14.1536 27.9262 14.0505L27.9162 14.0213C27.7246 13.4766 23.1077 0.679688 13 0.679688C9.27042 0.679688 5.90058 2.17022 3.51091 4.87666C1.24688 7.44091 0 10.928 0 14.6953C0 18.4627 1.24688 21.9497 3.51091 24.514C5.90058 27.2204 9.27042 28.7109 13 28.7109C17.6367 28.7109 21.0809 26.1282 23.4857 23.2315C22.5662 21.8163 21.8541 20.4596 21.3315 19.3423C19.4928 21.9945 16.723 24.6484 13 24.6484C7.82123 24.6484 4.0625 20.4625 4.0625 14.6953C4.0625 8.92809 7.82123 4.74219 13 4.74219C20.1452 4.74219 23.9594 15.0269 24.0811 15.3617C24.3509 16.1571 28.7781 28.7109 39 28.7109C42.7296 28.7109 46.0994 27.2204 48.4891 24.514C50.7531 21.9497 52 18.4627 52 14.6953C52 10.928 50.7531 7.44091 48.4891 4.87666Z" fill="#0050DF"/>
</svg>
