<svg width="16" height="16" viewBox="0 0 16 16" fill="none" xmlns="http://www.w3.org/2000/svg">
<path d="M8.16765 0.163086C4.02606 0.163086 0.667969 3.52118 0.667969 7.66277C0.667969 11.8044 4.02606 15.1631 8.16765 15.1631C12.3092 15.1631 15.668 11.8044 15.668 7.66277C15.668 3.52118 12.3092 0.163086 8.16765 0.163086ZM9.72892 11.7866C9.34289 11.939 9.03559 12.0545 8.80511 12.1345C8.57527 12.2145 8.30797 12.2545 8.00384 12.2545C7.53654 12.2545 7.17273 12.1402 6.91368 11.9123C6.65464 11.6844 6.52575 11.3955 6.52575 11.0444C6.52575 10.9078 6.53527 10.7682 6.55432 10.6259C6.574 10.4837 6.60511 10.3237 6.64765 10.144L7.13083 8.43737C7.17337 8.27356 7.21019 8.11801 7.2394 7.97324C7.2686 7.82721 7.28257 7.69325 7.28257 7.57134C7.28257 7.3542 7.23749 7.20182 7.14797 7.1161C7.05718 7.03039 6.88638 6.98848 6.63178 6.98848C6.50733 6.98848 6.37908 7.0069 6.24765 7.04563C6.11749 7.08563 6.00448 7.12182 5.91178 7.15737L6.0394 6.63166C6.35559 6.50277 6.65845 6.39229 6.94733 6.30086C7.23622 6.20817 7.50924 6.16245 7.76638 6.16245C8.23051 6.16245 8.5886 6.27547 8.84067 6.49896C9.09146 6.72309 9.21781 7.01451 9.21781 7.37261C9.21781 7.4469 9.20892 7.57769 9.19178 7.76436C9.17464 7.95166 9.14225 8.12245 9.09527 8.27928L8.61464 9.98086C8.57527 10.1174 8.54035 10.2736 8.5086 10.4482C8.47749 10.6228 8.46225 10.7561 8.46225 10.8456C8.46225 11.0717 8.51241 11.2259 8.614 11.3078C8.71432 11.3898 8.89019 11.431 9.13908 11.431C9.25654 11.431 9.38797 11.4101 9.53654 11.3694C9.68384 11.3288 9.79051 11.2926 9.85781 11.2615L9.72892 11.7866ZM9.64384 4.87991C9.41971 5.08817 9.14987 5.19229 8.83432 5.19229C8.5194 5.19229 8.24765 5.08817 8.02162 4.87991C7.79686 4.67166 7.68321 4.41832 7.68321 4.12245C7.68321 3.82721 7.79749 3.57324 8.02162 3.36309C8.24765 3.15229 8.5194 3.04753 8.83432 3.04753C9.14987 3.04753 9.42035 3.15229 9.64384 3.36309C9.86797 3.57324 9.98035 3.82721 9.98035 4.12245C9.98035 4.41896 9.86797 4.67166 9.64384 4.87991Z" fill="#01FDEE"/>
</svg>
