<svg width="20" height="20" viewBox="0 0 20 20" fill="none" xmlns="http://www.w3.org/2000/svg">
<path d="M19.5287 15.3747C19.4751 15.2133 19.1343 14.9756 18.5065 14.662C18.3364 14.5631 18.0941 14.4288 17.7805 14.2584C17.4666 14.088 17.1817 13.931 16.9263 13.7875C16.6704 13.644 16.4306 13.505 16.2066 13.3707C16.1708 13.3438 16.0587 13.2654 15.8704 13.1351C15.6819 13.0052 15.523 12.9088 15.3927 12.8459C15.2627 12.7833 15.1349 12.7519 15.0093 12.7519C14.83 12.7519 14.606 12.8797 14.3371 13.1351C14.0682 13.3909 13.8215 13.6686 13.5974 13.9693C13.3733 14.2698 13.1356 14.5476 12.8848 14.8032C12.6336 15.0589 12.4272 15.1866 12.266 15.1866C12.185 15.1866 12.0841 15.1641 11.9632 15.1195C11.8423 15.0747 11.7503 15.0363 11.6872 15.0054C11.6246 14.9738 11.5173 14.9112 11.3647 14.8167C11.2119 14.7226 11.1269 14.671 11.109 14.662C9.88051 13.9803 8.82693 13.2001 7.94804 12.3216C7.06943 11.4426 6.28915 10.3891 5.60766 9.16045C5.59871 9.1425 5.54703 9.05727 5.45295 8.90491C5.35872 8.7524 5.29592 8.64494 5.26454 8.58199C5.23316 8.51929 5.19505 8.42732 5.15029 8.30629C5.10554 8.18526 5.08306 8.08443 5.08306 8.00364C5.08306 7.84232 5.21088 7.63597 5.46647 7.38485C5.72201 7.13388 6.00007 6.89615 6.30036 6.67213C6.60089 6.44811 6.87867 6.20142 7.1343 5.9325C7.38984 5.66344 7.51761 5.43937 7.51761 5.26006C7.51761 5.1346 7.48624 5.00669 7.42353 4.8767C7.36078 4.74643 7.26438 4.58748 7.1343 4.39907C7.00418 4.21076 6.92574 4.09877 6.89879 4.06273C6.76442 3.83871 6.62558 3.59886 6.48193 3.34327C6.33829 3.08773 6.1815 2.80288 6.01104 2.48906C5.84073 2.17539 5.70632 1.93318 5.60757 1.76282C5.29389 1.13523 5.0563 0.794318 4.89485 0.740703C4.83204 0.713802 4.73782 0.700233 4.6124 0.700233C4.37015 0.700233 4.05412 0.744991 3.66407 0.834788C3.27388 0.924444 2.96685 1.01848 2.74264 1.11728C2.29427 1.30549 1.81904 1.85247 1.31682 2.75803C0.859498 3.60079 0.63086 4.43492 0.630861 5.25982C0.630861 5.50175 0.646549 5.73713 0.677926 5.966C0.709303 6.19464 0.765368 6.45249 0.846166 6.7395C0.926823 7.02642 0.991886 7.23956 1.04107 7.37835C1.0903 7.51724 1.18222 7.76605 1.31678 8.12486C1.45114 8.48358 1.53194 8.70317 1.55884 8.78387C1.87266 9.66272 2.2448 10.4473 2.67518 11.1378C3.38328 12.2856 4.34961 13.4718 5.5736 14.6958C6.79764 15.9198 7.98356 16.8861 9.13142 17.5945C9.82185 18.0248 10.6067 18.3969 11.4854 18.711C11.5662 18.7378 11.7858 18.8184 12.1443 18.9532C12.503 19.0877 12.7519 19.1796 12.8908 19.2289C13.0298 19.2783 13.2429 19.3434 13.5296 19.4242C13.8169 19.505 14.0745 19.5611 14.3032 19.5927C14.532 19.6236 14.7674 19.6396 15.0093 19.6396C15.8342 19.6396 16.6684 19.4108 17.5113 18.9535C18.4167 18.4515 18.9636 17.9762 19.1519 17.5275C19.2509 17.3035 19.3447 16.9964 19.4344 16.6062C19.5243 16.2162 19.569 15.9002 19.569 15.658C19.5692 15.532 19.5557 15.4381 19.5287 15.3747Z" fill="white"/>
</svg>
