<svg width="46" height="36" viewBox="0 0 46 36" fill="none" xmlns="http://www.w3.org/2000/svg">
<path d="M42.4062 20.9928H7.99609V1.32423C7.99609 0.592798 7.39281 0 6.64844 0C5.90407 0 5.30078 0.592798 5.30078 1.32423V20.9928H3.59375C1.61227 20.9928 0 22.5767 0 24.5241V32.4687C0 34.4161 1.61227 36 3.59375 36H42.4062C44.3877 36 46 34.4161 46 32.4687V24.5241C46 22.5767 44.3877 20.9928 42.4062 20.9928ZM37.7344 28.4964C37.7344 28.845 37.5905 29.1857 37.3399 29.433C37.0883 29.6792 36.7415 29.8206 36.3867 29.8206C36.0319 29.8206 35.6852 29.6792 35.4335 29.433C35.183 29.1857 35.0391 28.845 35.0391 28.4964C35.0391 28.1477 35.183 27.8067 35.4335 27.5598C35.6852 27.3136 36.0319 27.1722 36.3867 27.1722C36.7415 27.1722 37.0883 27.3136 37.3399 27.5598C37.5905 27.806 37.7344 28.1477 37.7344 28.4964ZM33.5117 28.4964C33.5117 28.845 33.3678 29.1857 33.1172 29.433C32.8656 29.6792 32.5189 29.8206 32.1641 29.8206C31.8092 29.8206 31.4625 29.6792 31.2109 29.433C30.9603 29.1857 30.8164 28.845 30.8164 28.4964C30.8164 28.1477 30.9603 27.8067 31.2109 27.5598C31.4625 27.3136 31.8092 27.1722 32.1641 27.1722C32.5189 27.1722 32.8656 27.3136 33.1172 27.5598C33.3678 27.806 33.5117 28.1477 33.5117 28.4964ZM29.2891 28.4964C29.2891 28.845 29.1452 29.1857 28.8946 29.433C28.643 29.6792 28.2962 29.8206 27.9414 29.8206C27.5866 29.8206 27.2399 29.6792 26.9882 29.433C26.7376 29.1857 26.5938 28.845 26.5938 28.4964C26.5938 28.1477 26.7376 27.8067 26.9882 27.5598C27.2399 27.3136 27.5866 27.1722 27.9414 27.1722C28.2962 27.1722 28.643 27.3136 28.8946 27.5598C29.1452 27.806 29.2891 28.1477 29.2891 28.4964Z" fill="#0050DF"/>
</svg>
