<svg width="43" height="52" viewBox="0 0 43 52" fill="none" xmlns="http://www.w3.org/2000/svg">
<path d="M34.2844 17.6913C34.0574 16.3687 33.2535 15.2162 32.0912 14.546L29.9304 13.2984L32.6879 8.52222C32.9376 8.08975 32.7894 7.53687 32.357 7.28718C31.9245 7.03749 31.3716 7.18564 31.1219 7.61811L28.3644 12.3943L26.2032 11.1466C25.0417 10.4751 23.6416 10.3551 22.383 10.8201L16.4601 12.9963C15.4673 13.3603 14.634 14.0614 14.1051 14.9774L2.65011 34.8181C1.40294 36.9804 2.14352 39.7442 4.30475 40.9932L17.1928 48.4341C19.3551 49.6813 22.1189 48.9407 23.368 46.7795L34.8185 26.9465C35.3472 26.0308 35.5377 24.9586 35.3567 23.9165L34.2844 17.6913ZM26.0734 18.1706C27.8767 19.2118 28.4945 21.5173 27.4534 23.3206C26.4122 25.1239 24.1067 25.7417 22.3033 24.7006C20.5 23.6594 19.8823 21.3539 20.9234 19.5506C21.9655 17.7491 24.2697 17.1317 26.0734 18.1706ZM20.3744 33.4839C20.8069 33.7336 20.955 34.2864 20.7054 34.7189C20.4557 35.1514 19.9028 35.2995 19.4703 35.0498L14.9605 32.4461L14.8791 32.5871C14.8203 32.689 14.7738 32.7873 14.7275 32.8857L18.7678 35.2184C19.2 35.4679 19.3484 36.021 19.0987 36.4535C18.849 36.8859 18.2959 37.0339 17.8637 36.7844L14.3088 34.732C14.3086 35.0989 14.3577 35.4645 14.4543 35.8184C14.8923 37.4492 16.249 38.67 17.9168 38.9344C18.4088 39.0109 18.7456 39.4716 18.6691 39.9637C18.5925 40.4558 18.1316 40.7928 17.6396 40.7163C15.2654 40.3439 13.3338 38.6068 12.7129 36.2847C12.4908 35.4502 12.4464 34.5779 12.583 33.7254L11.7217 33.2281C11.2892 32.9784 11.1413 32.4252 11.3908 31.9931C11.6405 31.5606 12.1933 31.4125 12.6258 31.6621L13.158 31.9694C13.2047 31.8708 13.2634 31.7692 13.3177 31.675L13.399 31.5343L12.8744 31.2315C12.442 30.9818 12.294 30.4286 12.5435 29.9965C12.7932 29.564 13.3461 29.4159 13.7785 29.6655L14.5771 30.1266C15.2743 29.5166 16.1036 29.0769 16.9995 28.8418C19.3206 28.2224 21.789 29.0256 23.3008 30.8931C23.6128 31.2808 23.5517 31.8487 23.1638 32.161C22.7761 32.473 22.2082 32.4118 21.8959 32.024C20.5289 30.3331 18.1097 29.9383 16.2761 31.1075L20.3744 33.4839Z" fill="#0050DF"/>
<path d="M23.2079 23.1349C24.1464 23.6768 25.3464 23.3552 25.8882 22.4167C26.4301 21.4782 26.1085 20.2782 25.17 19.7363C24.2315 19.1944 23.0315 19.516 22.4896 20.4545C22.2287 20.905 22.1579 21.4409 22.2926 21.9437C22.4274 22.4465 22.7566 22.8752 23.2079 23.1349Z" fill="#0050DF"/>
</svg>
