<svg width="55" height="36" viewBox="0 0 55 36" fill="none" xmlns="http://www.w3.org/2000/svg">
<path d="M54.7412 33.3471C54.7371 33.2282 54.7329 33.1086 54.7287 32.9886C54.7244 32.8686 54.72 32.7483 54.7155 32.6274L54.7121 32.5369L54.7103 32.4915L54.7099 32.4802L54.7087 32.3788L54.7084 32.374L54.7069 32.3552L54.6954 32.205C54.6797 32.0045 54.6641 31.8032 54.6485 31.6018L54.6366 31.4494L54.6186 31.2517C54.6062 31.1202 54.5938 30.9888 54.5814 30.8577C54.5685 30.7269 54.5556 30.5962 54.5428 30.4659C54.5362 30.4009 54.5296 30.3359 54.5231 30.2711C54.5151 30.2111 54.5071 30.1512 54.4992 30.0913C54.4336 29.6163 54.3749 29.1495 54.2913 28.7008C54.2517 28.4762 54.2153 28.2555 54.1742 28.0403C54.1294 27.8256 54.0856 27.6157 54.043 27.4113C53.9622 27.0023 53.8607 26.6202 53.7752 26.2671C53.7533 26.179 53.7319 26.0925 53.7109 26.0082C53.6877 25.9242 53.6648 25.8424 53.6426 25.7625C53.5976 25.6031 53.5549 25.4518 53.5147 25.3098C53.4737 25.168 53.4377 25.0348 53.4 24.9128C53.3611 24.7911 53.3255 24.6793 53.2933 24.5784C53.2455 24.43 53.2052 24.3051 53.1735 24.2064C53.1265 24.0606 52.9725 23.9787 52.8252 24.0206L43.5692 26.6584C43.4282 26.6985 43.3407 26.839 43.3676 26.9832C43.3776 27.0371 43.3891 27.0987 43.4019 27.1677C43.4151 27.2372 43.4297 27.3141 43.4456 27.3979C43.4607 27.4819 43.4725 27.5738 43.4876 27.671C43.5025 27.7684 43.5183 27.8721 43.5349 27.9813C43.5431 28.0358 43.5527 28.0915 43.5602 28.149C43.5668 28.2066 43.5735 28.2657 43.5804 28.3259C43.6062 28.567 43.6447 28.8255 43.6618 29.1027C43.6732 29.2407 43.685 29.3824 43.6969 29.527C43.7059 29.6721 43.7104 29.8208 43.7181 29.9712C43.7382 30.2716 43.7344 30.5845 43.7402 30.8999L43.7415 31.0174L43.7373 31.1215C43.735 31.1908 43.7326 31.2602 43.7302 31.3299C43.7283 31.3992 43.7264 31.4688 43.7245 31.5385L43.7224 31.6426L43.716 31.7925C43.7075 31.9944 43.6988 32.1961 43.6902 32.3971L43.6838 32.5477L43.6829 32.5665L43.6828 32.5711C43.6829 32.5937 43.681 32.3918 43.6816 32.479L43.6809 32.4864L43.6781 32.5161L43.6726 32.5756C43.6655 32.6547 43.6583 32.7334 43.6512 32.812C43.6444 32.8903 43.6375 32.9684 43.6308 33.0461C43.6216 33.1234 43.6124 33.2004 43.6032 33.2768C43.5835 33.4295 43.5714 33.5808 43.5471 33.7282C43.5258 33.8756 43.5048 34.0205 43.4843 34.1624C43.4597 34.3033 43.4358 34.4412 43.4125 34.5754C43.3914 34.7097 43.3631 34.839 43.338 34.9641C43.3117 35.0891 43.2908 35.2104 43.2636 35.3255C43.237 35.4407 43.2115 35.5509 43.1873 35.6558C43.1753 35.7075 43.1636 35.7579 43.1523 35.807C43.1407 35.8491 43.1295 35.8899 43.1185 35.9295C43.112 35.9537 43.1059 35.9764 43.0996 35.9999H54.4203C54.572 35.9999 54.6984 35.8808 54.7042 35.7292C54.7042 35.7283 54.7042 35.7274 54.7043 35.7265C54.7137 35.5157 54.7234 35.2992 54.7333 35.0779C54.7375 34.8568 54.7418 34.6309 54.7462 34.4012C54.7527 34.1717 54.7457 33.9385 54.745 33.7027C54.7437 33.5848 54.7425 33.4663 54.7412 33.3471Z" fill="#0050DF"/>
<path d="M51.7968 21.4651C51.9487 21.404 52.0179 21.2281 51.9479 21.0802C51.9168 21.0144 51.8804 20.9375 51.8392 20.8506C51.8003 20.7688 51.7573 20.6784 51.7107 20.5799C51.6502 20.4567 51.5849 20.3236 51.515 20.1813C51.4445 20.0396 51.3697 19.8888 51.2906 19.7298C51.2506 19.6472 51.2112 19.579 51.17 19.5015C51.129 19.4256 51.0869 19.348 51.044 19.2688C50.9577 19.1107 50.8695 18.9453 50.7748 18.776C50.677 18.6085 50.5759 18.4353 50.472 18.2572C50.4199 18.1684 50.3671 18.0784 50.3136 17.9873C50.2576 17.8976 50.201 17.8069 50.1438 17.7151C50.0287 17.5324 49.9111 17.3456 49.7915 17.1558C49.5393 16.784 49.2882 16.3953 49.008 16.0169C48.9391 15.9217 48.8699 15.8261 48.8006 15.7302L48.6963 15.5864L48.5877 15.4451C48.4425 15.257 48.2967 15.0684 48.1509 14.8796C48.0025 14.6931 47.849 14.5104 47.6985 14.3271C47.6224 14.2361 47.5487 14.1437 47.4711 14.0547C47.3932 13.966 47.3157 13.8776 47.2383 13.7894C47.1609 13.7017 47.0838 13.6141 47.0071 13.527C46.9309 13.4396 46.854 13.3536 46.7747 13.2705C46.6177 13.1034 46.4627 12.9383 46.3102 12.7758C46.1575 12.6139 45.9993 12.4617 45.8489 12.3095C45.6973 12.1582 45.55 12.0096 45.3996 11.8715C45.2508 11.7323 45.1061 11.5969 44.9662 11.4658C44.8268 11.3345 44.6845 11.2152 44.552 11.097C44.4183 10.9802 44.2902 10.8682 44.1684 10.7617C44.0435 10.6587 43.9249 10.5611 43.8136 10.4693C43.7021 10.3779 43.5979 10.2924 43.5014 10.2134C43.4049 10.1346 43.3125 10.0663 43.231 10.0026C43.1124 9.91161 43.0123 9.83473 42.9327 9.77364C42.8114 9.68051 42.6384 9.7004 42.5409 9.81836L37.573 15.8318C37.4794 15.9452 37.4874 16.1109 37.5919 16.2144C37.6334 16.2555 37.6814 16.303 37.7353 16.3564C37.787 16.4083 37.8463 16.4633 37.907 16.5275C37.9677 16.5916 38.0333 16.6611 38.1035 16.7352C38.1737 16.8089 38.2484 16.8874 38.3271 16.9702C38.403 17.0556 38.4828 17.1456 38.566 17.2393C38.6483 17.3339 38.7382 17.4279 38.8237 17.5327C38.91 17.6364 38.9991 17.7436 39.0909 17.8538C39.1843 17.9621 39.2735 18.0796 39.3658 18.1983C39.4571 18.3178 39.5547 18.4357 39.6465 18.562C39.7383 18.688 39.8316 18.8161 39.926 18.9457C39.9742 19.0095 40.0199 19.0761 40.0649 19.1436C40.1105 19.2107 40.1562 19.278 40.2022 19.3457C40.2481 19.413 40.2944 19.4806 40.3407 19.5485C40.3869 19.6164 40.4293 19.6874 40.4739 19.7569C40.5616 19.897 40.6526 20.0351 40.7388 20.1762C40.8228 20.3188 40.9069 20.4613 40.9906 20.6033L41.0534 20.7092L41.1122 20.8174C41.1515 20.8892 41.1907 20.9609 41.2297 21.0322C41.3908 21.3139 41.5267 21.6044 41.669 21.8773C41.7341 22.0173 41.7981 22.1548 41.8608 22.2895C41.8922 22.3566 41.9232 22.423 41.9539 22.4885C41.9823 22.5552 42.0103 22.6211 42.0379 22.6862C42.0936 22.8156 42.1476 22.9417 42.2 23.0635C42.2483 23.187 42.295 23.3063 42.3399 23.4207C42.3623 23.4779 42.3842 23.5338 42.4057 23.5885C42.426 23.6419 42.4511 23.6997 42.4646 23.7441C42.4966 23.8374 42.5268 23.926 42.5553 24.0092C42.5843 24.0918 42.6116 24.1691 42.6367 24.2406C42.6697 24.3392 42.7 24.4296 42.7274 24.5113C42.7579 24.6026 42.7848 24.6833 42.8078 24.7524C42.8596 24.9076 43.0314 24.9868 43.1833 24.9258L51.7968 21.4651Z" fill="#0050DF"/>
<path d="M26.4991 10.7241C26.5743 10.7344 26.6575 10.7457 26.7482 10.7581C26.8384 10.7738 26.9359 10.7908 27.04 10.809C27.144 10.8268 27.2546 10.8458 27.3712 10.8658C27.4725 10.8827 27.5775 10.9071 27.6866 10.9299L30.8218 4.51679C30.6664 4.49252 30.5123 4.46843 30.3612 4.44486C30.2577 4.42948 30.1558 4.41178 30.0543 4.39911C29.9528 4.38683 29.8526 4.37467 29.7536 4.36268C29.556 4.33923 29.3638 4.31635 29.178 4.29428C28.9916 4.27831 28.8115 4.26287 28.6387 4.24806C28.4658 4.2348 28.3009 4.21734 28.143 4.20985C27.9855 4.20213 27.836 4.19475 27.6956 4.18784C27.5552 4.18121 27.4239 4.17504 27.3026 4.16928C27.1812 4.16732 27.0696 4.16553 26.9688 4.16392C26.8271 4.16219 26.7067 4.16075 26.6103 4.1596C26.4573 4.15775 26.3307 4.27733 26.3233 4.43017L26.0374 10.3993C26.0304 10.5463 26.1365 10.6744 26.2824 10.6944C26.3445 10.7029 26.4169 10.7129 26.4991 10.7241Z" fill="#0050DF"/>
<path d="M34.9243 14.0109C35.0086 14.0722 35.0884 14.1303 35.1635 14.185C35.2386 14.2388 35.309 14.2891 35.3741 14.3358C35.4022 14.3551 35.4487 14.3904 35.4867 14.4186C35.5259 14.4479 35.5631 14.4757 35.5985 14.5021C35.6756 14.5597 35.7437 14.6105 35.8021 14.654C35.9332 14.7519 36.1194 14.7188 36.2092 14.582L40.3026 8.34668C40.3925 8.20986 40.3489 8.02585 40.2069 7.94442C40.1438 7.90823 40.07 7.86593 39.9866 7.81804C39.9483 7.79603 39.9079 7.77292 39.8655 7.7486C39.8194 7.72249 39.7711 7.69518 39.7208 7.66671C39.6043 7.60251 39.4784 7.53318 39.3438 7.45901C39.2092 7.38565 39.0659 7.30762 38.9149 7.22527C38.771 7.15317 38.6197 7.07739 38.4619 6.99826C38.3034 6.92092 38.1417 6.83488 37.9683 6.7568C37.7957 6.67773 37.6173 6.59595 37.4339 6.51187C37.2517 6.42589 37.0595 6.3478 36.8644 6.26585C36.6684 6.18563 36.4713 6.09792 36.2654 6.02052C36.2132 6.00075 36.1602 5.98076 36.1077 5.96082L34.3418 13.6254C34.4394 13.6867 34.5314 13.7518 34.622 13.8104C34.7275 13.8803 34.8283 13.9472 34.9243 14.0109Z" fill="#0050DF"/>
<path d="M21.0026 10.6929C21.0817 10.6825 21.1593 10.6695 21.2369 10.6614C21.3144 10.6535 21.391 10.6457 21.4664 10.638C21.6171 10.6224 21.7637 10.6072 21.9055 10.5924C22.0478 10.5829 22.1852 10.5737 22.3171 10.5648C22.3829 10.5603 22.4474 10.556 22.5103 10.5516C22.5732 10.5474 22.6361 10.5421 22.69 10.542C22.8012 10.5391 22.9067 10.5364 23.0058 10.5338C23.1046 10.5307 23.1969 10.5277 23.2824 10.525C23.3878 10.5243 23.4846 10.5237 23.572 10.5231C23.6682 10.5226 23.7533 10.5221 23.826 10.5217C23.9897 10.5209 24.1183 10.3823 24.1076 10.2189L23.7391 4.59602C23.7283 4.4327 23.5828 4.31208 23.4204 4.3326C23.3482 4.3417 23.2639 4.35237 23.1684 4.36441C23.0799 4.37565 22.9819 4.38815 22.8751 4.40175C22.7491 4.42048 22.6127 4.44065 22.467 4.46226C22.3217 4.48439 22.167 4.50797 22.004 4.5328C21.9205 4.54456 21.8437 4.56018 21.7631 4.57539C21.6827 4.59072 21.6004 4.60645 21.5165 4.62248C21.3488 4.65486 21.1743 4.68863 20.9934 4.72356C20.814 4.76442 20.6285 4.80672 20.4378 4.85011C20.3426 4.87195 20.2461 4.89414 20.1485 4.91662C20.051 4.93944 19.9532 4.96733 19.854 4.99298C19.6561 5.04571 19.454 5.09959 19.2483 5.15434C19.0448 5.21571 18.8378 5.27807 18.6284 5.34123C18.524 5.37356 18.4185 5.40405 18.3136 5.43857C18.2092 5.47424 18.104 5.51003 17.9985 5.54605C17.8932 5.58212 17.7876 5.61832 17.6816 5.65468C17.5755 5.69076 17.4693 5.727 17.3646 5.76832C17.1545 5.84849 16.9436 5.929 16.7328 6.0095C16.5228 6.09168 16.3163 6.18274 16.1094 6.2689C16.0062 6.31287 15.9028 6.35528 15.8008 6.4004C15.6996 6.44714 15.5987 6.49371 15.4981 6.54016C15.3978 6.58661 15.2978 6.63294 15.1984 6.67899C15.099 6.72498 15 6.77027 14.9037 6.82024C14.7105 6.91775 14.5197 7.0141 14.3321 7.10885C14.1444 7.20296 13.9655 7.3068 13.7878 7.40241C13.611 7.49981 13.437 7.59271 13.273 7.69281C13.108 7.79066 12.9475 7.88592 12.7922 7.97801C12.6365 8.06884 12.4921 8.16693 12.3506 8.25556C12.21 8.34563 12.0753 8.43202 11.9472 8.51414C11.8219 8.60018 11.7029 8.68179 11.5912 8.75849C11.4797 8.83526 11.3754 8.90706 11.2789 8.97351C11.1826 9.03996 11.0973 9.10583 11.0188 9.16277C10.9123 9.24137 10.8215 9.30845 10.7479 9.36274C10.6251 9.45339 10.5963 9.62461 10.6822 9.75087L13.017 13.1836C13.1001 13.3058 13.2626 13.3441 13.3913 13.2715C13.4506 13.238 13.5207 13.1985 13.6006 13.1534C13.6703 13.1148 13.7456 13.0693 13.8308 13.025C13.9158 12.9806 14.0078 12.9328 14.1061 12.8816C14.204 12.8304 14.3083 12.7759 14.4182 12.7184C14.53 12.6648 14.6475 12.6084 14.7702 12.5497C14.8934 12.4923 15.0184 12.4265 15.1532 12.3692C15.2869 12.3104 15.4253 12.2498 15.5675 12.1873C15.7083 12.1225 15.8574 12.0659 16.0083 12.0053C16.16 11.9466 16.3119 11.8801 16.471 11.8239C16.6294 11.7668 16.7906 11.7087 16.9536 11.6499C17.0344 11.6192 17.1177 11.5932 17.2011 11.5666C17.2843 11.5398 17.368 11.5129 17.4519 11.4859C17.5357 11.4588 17.6199 11.4316 17.7042 11.4043C17.7891 11.3785 17.8751 11.3555 17.9606 11.3308C18.1322 11.2833 18.3028 11.2306 18.4756 11.1865C18.6487 11.1437 18.8217 11.1008 18.994 11.0583C19.0795 11.0355 19.1663 11.0177 19.2527 10.9999C19.3389 10.9817 19.4249 10.9636 19.5106 10.9456C19.596 10.9274 19.6811 10.9094 19.7658 10.8914C19.8507 10.8745 19.936 10.8614 20.0202 10.8462C20.1886 10.817 20.3549 10.7881 20.5186 10.7597C20.6829 10.7371 20.8444 10.7147 21.0026 10.6929Z" fill="#0050DF"/>
<path d="M5.0804 15.1312C5.0192 15.2177 4.95777 15.3047 4.89605 15.392C4.8345 15.4793 4.77272 15.5669 4.71071 15.6547C4.64899 15.7427 4.59124 15.834 4.53119 15.9238C4.41282 16.1046 4.29169 16.284 4.17574 16.4668C4.06249 16.6512 3.94925 16.8355 3.83647 17.0192L3.75233 17.1567L3.67246 17.2964C3.61938 17.3893 3.56648 17.4821 3.51375 17.5743C3.29821 17.9404 3.11097 18.3147 2.92068 18.6701C2.8321 18.8514 2.74497 19.0296 2.65968 19.2041C2.61738 19.2913 2.57548 19.3776 2.53416 19.4628C2.49526 19.5491 2.45688 19.6345 2.41896 19.7187C2.34346 19.8869 2.27004 20.0505 2.19898 20.2088C2.13271 20.3691 2.06863 20.5239 2.00714 20.6724C1.94686 20.8215 1.88594 20.9625 1.83402 21.0993C1.78278 21.2363 1.73415 21.3663 1.68839 21.4885C1.64286 21.6105 1.60027 21.7246 1.56091 21.8302C1.52455 21.9368 1.49118 22.0347 1.46098 22.1232C1.42179 22.2395 1.38814 22.3393 1.36065 22.421C1.31195 22.5654 1.38601 22.7221 1.52835 22.7767L3.70156 23.6099C3.83987 23.6629 3.99564 23.601 4.05955 23.4673C4.09125 23.4012 4.12911 23.3219 4.17262 23.2309C4.2087 23.156 4.24858 23.0729 4.29209 22.9825C4.33831 22.8934 4.38827 22.7971 4.4417 22.6941C4.49495 22.5915 4.55154 22.482 4.61124 22.3668C4.67141 22.2519 4.74068 22.134 4.80943 22.0095C4.87905 21.8858 4.9516 21.7567 5.02669 21.6231C5.10582 21.4921 5.18759 21.3566 5.27173 21.2173C5.31363 21.1477 5.3561 21.0772 5.3991 21.0059C5.44433 20.9358 5.49015 20.8651 5.53643 20.7933C5.62898 20.6504 5.72355 20.5045 5.81973 20.3559C6.02409 20.0666 6.22395 19.7619 6.4498 19.4681C6.50495 19.3938 6.56033 19.3193 6.61589 19.2445L6.69916 19.1323L6.78641 19.0226C6.90259 18.8763 7.01923 18.7295 7.13588 18.5827C7.25465 18.4377 7.37792 18.2965 7.49773 18.154C7.55847 18.0833 7.6168 18.0112 7.67898 17.9424C7.74122 17.8738 7.80323 17.8053 7.86501 17.7371C7.92667 17.669 7.98804 17.6012 8.04913 17.5336C8.10964 17.4657 8.17073 17.3991 8.23418 17.3352C8.359 17.2059 8.48233 17.0782 8.60364 16.9525C8.72472 16.827 8.8511 16.7106 8.9704 16.5929C9.09061 16.4761 9.20691 16.3609 9.32666 16.2552C9.44446 16.148 9.55903 16.0438 9.6699 15.9429C9.77986 15.8414 9.89316 15.7508 9.99782 15.6599C10.1032 15.5701 10.2041 15.4842 10.3001 15.4024C10.3944 15.3277 10.4839 15.257 10.5679 15.1904C10.6515 15.1239 10.7297 15.0616 10.802 15.0039C10.8352 14.9765 10.8801 14.9436 10.9181 14.9148C10.9571 14.8853 10.9942 14.8573 11.0295 14.8307C11.1063 14.7727 11.1742 14.7215 11.2322 14.6777C11.3629 14.5791 11.3831 14.3912 11.2768 14.2667L8.80252 11.368C8.69625 11.2435 8.5074 11.234 8.38955 11.3475C8.33716 11.398 8.2759 11.4569 8.20663 11.5237C8.17482 11.5543 8.14128 11.5867 8.10613 11.6205C8.07034 11.6552 8.03628 11.6869 7.99191 11.7322C7.90707 11.8178 7.81539 11.9104 7.71736 12.0093C7.61985 12.1083 7.51606 12.2136 7.40662 12.3246C7.3049 12.4347 7.19794 12.5506 7.08637 12.6714C6.97618 12.7932 6.85735 12.9159 6.74238 13.0504C6.62695 13.1842 6.50766 13.3226 6.38496 13.4648C6.26077 13.6053 6.14061 13.7562 6.017 13.9093C5.89431 14.0632 5.76499 14.2168 5.6416 14.3796C5.51856 14.5423 5.39351 14.7078 5.26695 14.8754C5.20264 14.9584 5.14115 15.0442 5.0804 15.1312Z" fill="#0050DF"/>
<path d="M0.585228 25.2942C0.570763 25.3655 0.55382 25.4489 0.534629 25.5432C0.517052 25.6298 0.497573 25.7257 0.476366 25.83C0.455561 25.9368 0.435218 26.0628 0.412512 26.1914C0.390152 26.3213 0.366408 26.4595 0.341397 26.6052C0.329295 26.6778 0.315464 26.7528 0.303996 26.8285C0.293795 26.9037 0.283422 26.9806 0.272761 27.059C0.232189 27.3733 0.178767 27.7114 0.147993 28.0726C0.130127 28.2526 0.111801 28.4374 0.0930717 28.6264C0.077627 28.8156 0.0673113 29.0093 0.0539989 29.2057C0.0228789 29.5982 0.0171736 30.0053 0.00420696 30.4172L0 30.5719L0.000749184 30.7274C0.00132548 30.8312 0.00190177 30.9351 0.00247807 31.0394C0.00311199 31.1435 0.00374592 31.2478 0.00432221 31.3522L0.00530192 31.5088L0.0112954 31.6655C0.0197669 31.8739 0.0282385 32.0825 0.03671 32.2902L0.0431069 32.4455L0.0450663 32.4958L0.0478325 32.5332L0.0533649 32.6081C0.0607415 32.7079 0.0680605 32.8074 0.0753794 32.9066C0.0826984 33.0058 0.0900173 33.1045 0.097221 33.2028C0.107191 33.3052 0.117046 33.4073 0.126958 33.5087C0.136928 33.6101 0.14684 33.7107 0.156695 33.8107C0.161651 33.8606 0.166607 33.9104 0.171563 33.9599C0.177729 34.0086 0.183896 34.0572 0.190005 34.1056C0.214555 34.2987 0.238701 34.4886 0.26233 34.6745C0.290856 34.8595 0.318749 35.0406 0.345835 35.2169C0.371192 35.3931 0.403868 35.5635 0.433893 35.7282C0.436371 35.7414 0.438849 35.7544 0.441269 35.7675C0.466338 35.9023 0.583557 35.9998 0.720542 35.9998H1.4865C1.65005 35.9998 1.77983 35.8622 1.77021 35.6989C1.76761 35.6554 1.76496 35.6114 1.76202 35.5669C1.75246 35.4081 1.74093 35.2443 1.73724 35.0753C1.73171 34.9065 1.72606 34.7332 1.72024 34.556C1.71915 34.379 1.71805 34.1981 1.71696 34.0141C1.71667 33.9682 1.71638 33.922 1.71609 33.8758C1.71707 33.8302 1.71811 33.7844 1.71915 33.7383C1.72116 33.6466 1.72318 33.5541 1.72526 33.461C1.72727 33.3682 1.72935 33.2747 1.73142 33.1807C1.73603 33.0823 1.74058 32.9833 1.74525 32.8841C1.74986 32.7848 1.75453 32.6851 1.75914 32.5851L1.76266 32.51L1.76439 32.4724L1.76462 32.4677C1.76462 32.4558 1.76485 32.4787 1.76496 32.4748L1.76565 32.4657L1.76709 32.4476L1.77874 32.3022C1.79418 32.1083 1.80968 31.9138 1.82524 31.7192L1.83711 31.5735L1.85388 31.4283C1.86506 31.3316 1.87619 31.235 1.88731 31.1386C1.89837 31.0422 1.90944 30.9461 1.92045 30.8503L1.93687 30.7069L1.95814 30.5645C2.01646 30.1859 2.06602 29.8134 2.13863 29.4568C2.17269 29.2782 2.20318 29.1024 2.23816 28.9313C2.27625 28.7609 2.31348 28.5942 2.34973 28.4319C2.41681 28.1068 2.50377 27.8046 2.57454 27.5244C2.59269 27.4545 2.61044 27.386 2.62779 27.3192C2.64612 27.2533 2.66588 27.1909 2.6841 27.1292C2.72081 27.0062 2.75567 26.8897 2.7884 26.78C2.82189 26.6695 2.84938 26.5706 2.88142 26.4714C2.91502 26.3702 2.94579 26.2775 2.97368 26.1937C3.004 26.1023 3.03079 26.0216 3.05373 25.9524C3.10531 25.7972 3.01523 25.6309 2.8571 25.5887L0.936941 25.0767C0.778748 25.0344 0.617846 25.1339 0.585228 25.2942Z" fill="#0050DF"/>
<path d="M22.3212 35.2467C22.9459 35.5521 23.6077 35.6969 24.2592 35.6969C25.8946 35.6969 27.4663 34.7857 28.2329 33.2175C28.3806 32.9156 28.4948 32.5823 28.5692 32.2685L33.0399 12.8637L34.7425 5.47365L35.7973 0.895736C35.9201 0.362951 35.4962 0 35.0711 0C34.8222 0 34.5727 0.124423 34.4321 0.411936L32.2857 4.80233L29.1193 11.2791L20.2919 29.335C19.2198 31.5279 20.1284 34.1747 22.3212 35.2467ZM24.4231 28.9977C25.6194 28.9977 26.5893 29.9675 26.5893 31.1639C26.5893 32.3602 25.6194 33.3301 24.4231 33.3301C23.2268 33.3301 22.2569 32.3602 22.2569 31.1639C22.2569 29.9674 23.2268 28.9977 24.4231 28.9977Z" fill="#0050DF"/>
</svg>
